<svg width="44" height="44" viewBox="0 0 44 44" fill="none" xmlns="http://www.w3.org/2000/svg">
<path d="M30.4132 11.5775C29.3732 11.5775 28.5332 12.4437 28.5332 13.5162C28.5332 14.5887 29.3732 15.455 30.4132 15.455C31.4532 15.455 32.2932 14.5887 32.2932 13.5162C32.2932 12.4437 31.4532 11.5775 30.4132 11.5775Z" fill="#F5F5F5"/>
<path d="M22.0533 13.4062C17.4533 13.4062 13.72 17.2562 13.72 22C13.72 26.7438 17.4533 30.5938 22.0533 30.5938C26.6533 30.5938 30.3867 26.7438 30.3867 22C30.3867 17.2562 26.6533 13.4062 22.0533 13.4062ZM22.0533 27.5138C19.1067 27.5138 16.72 25.0388 16.72 22.0138C16.72 18.9888 19.12 16.5138 22.0533 16.5138C24.9867 16.5138 27.3867 18.9888 27.3867 22.0138C27.3867 25.0388 24.9867 27.5138 22.0533 27.5138Z" fill="#F5F5F5"/>
<path d="M28.36 5.5H15.64C10.32 5.5 6 9.955 6 15.4412V28.5588C6 34.045 10.32 38.5 15.64 38.5H28.36C33.68 38.5 38 34.045 38 28.5588V15.4412C38 9.955 33.68 5.5 28.36 5.5ZM34.9867 28.5588C34.9867 32.3263 32.0267 35.3787 28.36 35.3787H15.64C11.9867 35.3787 9.01333 32.3263 9.01333 28.5588V15.4412C9.01333 11.6737 11.9733 8.62125 15.64 8.62125H28.36C32.0133 8.62125 34.9867 11.6737 34.9867 15.4412V28.5588Z" fill="#F5F5F5"/>
</svg>
