<svg width="44" height="44" viewBox="0 0 44 44" fill="none" xmlns="http://www.w3.org/2000/svg">
<path fill-rule="evenodd" clip-rule="evenodd" d="M41.3068 9.41878C40.0668 9.99628 38.7068 10.34 37.3735 10.5738C38.0001 10.4638 38.9468 9.28128 39.3068 8.80003C39.8801 8.07128 40.3468 7.24628 40.6135 6.33878C40.6535 6.27003 40.6668 6.17378 40.6135 6.13253C40.5335 6.09128 40.4668 6.11878 40.4001 6.14628C38.9068 6.97128 37.3735 7.56253 35.7335 7.98878C35.6001 8.03003 35.4935 7.98878 35.4135 7.90628C35.2801 7.75503 35.1468 7.60378 35.0001 7.48003C33.3468 6.02253 31.2268 5.36253 29.1335 5.51378C29.1335 5.51378 29.1468 5.51378 29.1601 5.51378H29.0001C29.0001 5.51378 29.0401 5.51378 29.0535 5.52753C27.8935 5.62378 26.7468 5.96753 25.6935 6.58628C22.6268 8.37378 21.1468 11.88 21.6535 15.4C21.6801 15.5925 21.6535 15.62 21.4935 15.5925C15.0801 14.6025 9.76015 12.2375 5.45349 7.16378C5.26682 6.94378 5.16015 6.94378 5.01349 7.17753C3.12015 10.0925 4.04015 14.7812 6.40015 17.0912C6.72015 17.3937 7.04015 17.71 7.38682 17.985C7.25349 18.0125 5.69349 17.8337 4.29349 17.0912C4.10682 16.9675 4.01349 17.0362 4.00015 17.2562C3.98682 17.5725 4.00015 17.8612 4.05349 18.205C4.41349 21.1612 6.40015 23.8975 9.12015 24.97C9.44015 25.1075 9.80015 25.2312 10.1468 25.3C9.53349 25.4375 8.89349 25.5337 7.10682 25.3962C6.88015 25.355 6.80015 25.465 6.88015 25.685C8.21349 29.4387 11.1068 30.5525 13.2668 31.1987C13.5601 31.2537 13.8401 31.2537 14.1335 31.3225C14.1201 31.35 14.0935 31.35 14.0801 31.3775C13.3601 32.505 10.8802 33.3437 9.72015 33.7562C7.61349 34.5125 5.32015 34.8562 3.10682 34.6362C2.74682 34.5812 2.68016 34.5812 2.57349 34.6362C2.48016 34.705 2.57349 34.7875 2.68015 34.8837C3.13349 35.1862 3.58682 35.4612 4.05349 35.7225C5.46682 36.4925 6.93349 37.1112 8.48015 37.5512C17.4268 40.095 27.2668 37.51 33.0135 29.7687C36.3868 25.2312 37.6935 19.6212 37.6935 13.9837C37.6935 13.7225 37.9868 13.585 38.1735 13.4475C39.3868 12.4988 40.3601 11.3713 41.2668 10.1063C41.4668 9.81753 41.4535 9.57003 41.4535 9.46003V9.41878C41.4535 9.30878 41.4535 9.35003 41.3068 9.41878Z" fill="#F5F5F5"/>
</svg>
