<svg width="44" height="44" viewBox="0 0 44 44" fill="none" xmlns="http://www.w3.org/2000/svg">
<path fill-rule="evenodd" clip-rule="evenodd" d="M21.6134 5.54129C13.68 6.10504 7.34669 12.8975 7.09335 21.0925C6.98669 24.4063 7.85335 27.61 9.58669 30.36L5.66669 38.5C5.78669 38.5 15.36 35.8325 15.36 35.8325C17.6134 37.0838 20.1467 37.73 22.72 37.73C31.3334 37.73 38.3467 30.4975 38.3467 21.615C38.3467 12.7325 30.7334 4.89504 21.6134 5.54129ZM22.7067 34.925C20.4267 34.925 18.1734 34.2925 16.2134 33.11C16 32.9863 15.72 32.78 15.72 32.78C15.72 32.78 15.28 32.9313 15.16 32.9588L10.88 34.1688L12.7067 30.0163C10.64 27.39 9.62669 24.145 9.82669 20.7625C10.2134 14.1625 15.3867 8.78629 21.7867 8.33254C29.3067 7.79629 35.6 13.9563 35.6 21.6013C35.6 29.2463 29.8134 34.9113 22.6934 34.9113L22.7067 34.925Z" fill="#F5F5F5"/>
<path fill-rule="evenodd" clip-rule="evenodd" d="M28.7201 24.035C28.0668 23.6362 27.2135 23.1825 26.4401 23.5125C25.8535 23.76 25.4668 24.7225 25.0935 25.2037C24.8935 25.4512 24.6668 25.4925 24.3601 25.3687C22.1335 24.4612 20.4401 22.9212 19.2135 20.8175C19.0001 20.4875 19.0401 20.2262 19.2935 19.9237C19.6668 19.47 20.1335 18.9612 20.2268 18.3562C20.3335 17.7512 20.0535 17.0362 19.8135 16.5C19.5068 15.8125 19.1601 14.8225 18.4935 14.4375C17.8801 14.08 17.0668 14.2862 16.5201 14.74C15.5735 15.5375 15.1201 16.775 15.1335 18.0125C15.1335 18.37 15.1735 18.7137 15.2535 19.0575C15.9201 21.8762 17.8001 24.255 20.0001 25.9737C21.8935 27.4587 25.0268 29.4662 27.5201 28.985C28.7335 28.7512 29.9201 27.9812 30.4001 26.7712C30.5468 26.4137 30.6135 26.015 30.5335 25.6437C30.3735 24.8737 29.3468 24.4062 28.7335 24.035H28.7201Z" fill="#F5F5F5"/>
</svg>
