<svg width="204" height="44" viewBox="0 0 204 44" fill="none" xmlns="http://www.w3.org/2000/svg">
<g clip-path="url(#clip0_12_2)">
<circle cx="22" cy="22" r="21.5" stroke="white"/>
<path d="M0.5 22H4" stroke="white"/>
<path d="M43.5 22H40" stroke="white"/>
<path d="M22 43.5V40" stroke="white"/>
<path d="M22 0.5V4" stroke="white"/>
<path d="M18.4144 18.8108L12.8673 31.8827L25.9392 26.3356L18.4144 18.8108Z" fill="white" stroke="white"/>
<path d="M17.5806 21.5126L18.6413 18.3306L32.0763 12.6737L26.4194 26.1088L23.2374 27.1694" stroke="white"/>
<path d="M60.504 22.264H64.512V22.96C64.512 24.512 64.848 25.712 65.52 26.56C66.208 27.392 67.336 27.808 68.904 27.808C70.456 27.808 71.576 27.408 72.264 26.608C72.968 25.792 73.32 24.672 73.32 23.248V13H77.4V23.44C77.4 25.136 77.04 26.576 76.32 27.76C75.616 28.944 74.624 29.84 73.344 30.448C72.064 31.056 70.584 31.36 68.904 31.36C67.24 31.36 65.776 31.048 64.512 30.424C63.248 29.8 62.264 28.888 61.56 27.688C60.872 26.472 60.528 24.992 60.528 23.248L60.504 22.264ZM91.0129 31.36C89.3169 31.36 87.8289 31.064 86.5489 30.472C85.2689 29.864 84.2689 29.024 83.5489 27.952C82.8289 26.864 82.4689 25.608 82.4689 24.184C82.4689 22.744 82.8289 21.488 83.5489 20.416C84.2689 19.328 85.2689 18.488 86.5489 17.896C87.8289 17.288 89.3169 16.984 91.0129 16.984C92.7089 16.984 94.1969 17.288 95.4769 17.896C96.7569 18.488 97.7489 19.328 98.4529 20.416C99.1729 21.488 99.5329 22.744 99.5329 24.184C99.5329 25.608 99.1729 26.864 98.4529 27.952C97.7489 29.024 96.7569 29.864 95.4769 30.472C94.1969 31.064 92.7089 31.36 91.0129 31.36ZM91.0129 28.312C91.9409 28.312 92.7329 28.144 93.3889 27.808C94.0609 27.472 94.5729 27 94.9249 26.392C95.2929 25.768 95.4769 25.032 95.4769 24.184C95.4769 23.32 95.2929 22.584 94.9249 21.976C94.5729 21.352 94.0609 20.872 93.3889 20.536C92.7329 20.2 91.9409 20.032 91.0129 20.032C90.1009 20.032 89.3089 20.2 88.6369 20.536C87.9649 20.872 87.4449 21.352 87.0769 21.976C86.7249 22.584 86.5489 23.32 86.5489 24.184C86.5489 25.032 86.7249 25.768 87.0769 26.392C87.4449 27 87.9649 27.472 88.6369 27.808C89.3089 28.144 90.1009 28.312 91.0129 28.312ZM104.054 17.344H108.11L108.926 22.264V31H104.918V21.832L104.054 17.344ZM115.574 17.2V20.656C115.158 20.56 114.742 20.488 114.326 20.44C113.91 20.392 113.518 20.368 113.15 20.368C112.35 20.368 111.63 20.536 110.99 20.872C110.35 21.208 109.846 21.728 109.478 22.432C109.11 23.136 108.926 24.024 108.926 25.096L108.086 24.088C108.182 23.112 108.358 22.2 108.614 21.352C108.87 20.488 109.222 19.736 109.67 19.096C110.134 18.44 110.702 17.928 111.374 17.56C112.046 17.176 112.846 16.984 113.774 16.984C114.078 16.984 114.382 17.008 114.686 17.056C115.006 17.088 115.302 17.136 115.574 17.2ZM119.66 17.344H123.668L124.532 22.552V31H120.524V21.952L119.66 17.344ZM129.74 16.984C131.036 16.984 132.14 17.248 133.052 17.776C133.964 18.288 134.66 19.024 135.14 19.984C135.62 20.944 135.86 22.088 135.86 23.416V31H131.852V24.016C131.852 22.784 131.556 21.856 130.964 21.232C130.372 20.592 129.508 20.272 128.372 20.272C127.604 20.272 126.924 20.448 126.332 20.8C125.756 21.136 125.308 21.608 124.988 22.216C124.684 22.824 124.532 23.552 124.532 24.4L123.212 23.704C123.372 22.264 123.756 21.048 124.364 20.056C124.972 19.064 125.74 18.304 126.668 17.776C127.596 17.248 128.62 16.984 129.74 16.984ZM154.067 31L153.491 26.008L154.139 24.184L153.491 22.384L154.067 17.344H158.219L157.427 24.184L158.219 31H154.067ZM155.123 24.184C154.867 25.624 154.395 26.888 153.707 27.976C153.035 29.048 152.179 29.88 151.139 30.472C150.115 31.064 148.963 31.36 147.683 31.36C146.355 31.36 145.179 31.064 144.155 30.472C143.131 29.864 142.331 29.024 141.755 27.952C141.195 26.864 140.915 25.608 140.915 24.184C140.915 22.744 141.195 21.488 141.755 20.416C142.331 19.328 143.131 18.488 144.155 17.896C145.179 17.288 146.355 16.984 147.683 16.984C148.963 16.984 150.115 17.28 151.139 17.872C152.179 18.464 153.043 19.304 153.731 20.392C154.419 21.464 154.883 22.728 155.123 24.184ZM144.971 24.184C144.971 24.984 145.131 25.688 145.451 26.296C145.787 26.904 146.243 27.384 146.819 27.736C147.395 28.072 148.059 28.24 148.811 28.24C149.563 28.24 150.267 28.072 150.923 27.736C151.595 27.384 152.187 26.904 152.699 26.296C153.211 25.688 153.611 24.984 153.899 24.184C153.611 23.384 153.211 22.68 152.699 22.072C152.187 21.448 151.595 20.968 150.923 20.632C150.267 20.28 149.563 20.104 148.811 20.104C148.059 20.104 147.395 20.28 146.819 20.632C146.243 20.968 145.787 21.448 145.451 22.072C145.131 22.68 144.971 23.384 144.971 24.184ZM176.308 31L175.732 25.84L176.5 24.208L175.756 22.216L176.836 12.52H180.988L179.668 23.896L180.46 31H176.308ZM177.292 24.184C177.036 25.624 176.564 26.888 175.876 27.976C175.204 29.048 174.348 29.88 173.308 30.472C172.284 31.064 171.132 31.36 169.852 31.36C168.524 31.36 167.348 31.064 166.324 30.472C165.3 29.864 164.5 29.024 163.924 27.952C163.364 26.864 163.084 25.608 163.084 24.184C163.084 22.744 163.364 21.488 163.924 20.416C164.5 19.328 165.3 18.488 166.324 17.896C167.348 17.288 168.524 16.984 169.852 16.984C171.132 16.984 172.284 17.28 173.308 17.872C174.348 18.464 175.212 19.304 175.9 20.392C176.588 21.464 177.052 22.728 177.292 24.184ZM167.14 24.184C167.14 24.984 167.3 25.688 167.62 26.296C167.956 26.904 168.412 27.384 168.988 27.736C169.564 28.072 170.228 28.24 170.98 28.24C171.732 28.24 172.436 28.072 173.092 27.736C173.764 27.384 174.356 26.904 174.868 26.296C175.38 25.688 175.78 24.984 176.068 24.184C175.78 23.384 175.38 22.68 174.868 22.072C174.356 21.448 173.764 20.968 173.092 20.632C172.436 20.28 171.732 20.104 170.98 20.104C170.228 20.104 169.564 20.28 168.988 20.632C168.412 20.968 167.956 21.448 167.62 22.072C167.3 22.68 167.14 23.384 167.14 24.184ZM198.476 31L197.9 26.008L198.548 24.184L197.9 22.384L198.476 17.344H202.628L201.836 24.184L202.628 31H198.476ZM199.532 24.184C199.276 25.624 198.804 26.888 198.116 27.976C197.444 29.048 196.588 29.88 195.548 30.472C194.524 31.064 193.372 31.36 192.092 31.36C190.764 31.36 189.588 31.064 188.564 30.472C187.54 29.864 186.74 29.024 186.164 27.952C185.604 26.864 185.324 25.608 185.324 24.184C185.324 22.744 185.604 21.488 186.164 20.416C186.74 19.328 187.54 18.488 188.564 17.896C189.588 17.288 190.764 16.984 192.092 16.984C193.372 16.984 194.524 17.28 195.548 17.872C196.588 18.464 197.452 19.304 198.14 20.392C198.828 21.464 199.292 22.728 199.532 24.184ZM189.38 24.184C189.38 24.984 189.54 25.688 189.86 26.296C190.196 26.904 190.652 27.384 191.228 27.736C191.804 28.072 192.468 28.24 193.22 28.24C193.972 28.24 194.676 28.072 195.332 27.736C196.004 27.384 196.596 26.904 197.108 26.296C197.62 25.688 198.02 24.984 198.308 24.184C198.02 23.384 197.62 22.68 197.108 22.072C196.596 21.448 196.004 20.968 195.332 20.632C194.676 20.28 193.972 20.104 193.22 20.104C192.468 20.104 191.804 20.28 191.228 20.632C190.652 20.968 190.196 21.448 189.86 22.072C189.54 22.68 189.38 23.384 189.38 24.184Z" fill="white"/>
</g>
<defs>
<clipPath id="clip0_12_2">
<rect width="204" height="44" fill="white"/>
</clipPath>
</defs>
</svg>
